<svg width="301" height="139" viewBox="0 0 301 139" fill="none" xmlns="http://www.w3.org/2000/svg">
<path d="M67.6932 67.6735V21.8255H104.565V67.6735H98.5812V27.1935H73.6772V67.6735H67.6932ZM141.205 68.5535C137.391 68.5535 133.959 67.5561 130.909 65.5615C127.917 63.5668 125.541 61.1028 123.781 58.1695V86.4175H117.797V21.8255H123.165V30.7135C124.983 27.8388 127.418 25.5215 130.469 23.7615C133.519 21.9428 136.775 21.0335 140.237 21.0335C143.405 21.0335 146.309 21.7081 148.949 23.0575C151.589 24.3481 153.877 26.1081 155.813 28.3375C157.749 30.5668 159.245 33.1188 160.301 35.9935C161.415 38.8095 161.973 41.7428 161.973 44.7935C161.973 49.0761 161.093 53.0361 159.333 56.6735C157.631 60.2521 155.226 63.1268 152.117 65.2975C149.007 67.4681 145.37 68.5535 141.205 68.5535ZM139.533 63.2735C142.055 63.2735 144.314 62.7748 146.309 61.7775C148.303 60.7215 150.005 59.3135 151.413 57.5535C152.879 55.7935 153.994 53.8281 154.757 51.6575C155.519 49.4281 155.901 47.1401 155.901 44.7935C155.901 42.3295 155.461 39.9828 154.581 37.7535C153.759 35.5241 152.557 33.5588 150.973 31.8575C149.389 30.1561 147.57 28.8068 145.517 27.8095C143.463 26.8121 141.234 26.3135 138.829 26.3135C137.303 26.3135 135.719 26.6068 134.077 27.1935C132.434 27.7801 130.85 28.6308 129.325 29.7455C127.858 30.8015 126.626 32.0041 125.629 33.3535C124.631 34.7028 124.015 36.1401 123.781 37.6655V51.7455C124.719 53.9161 125.981 55.8815 127.565 57.6415C129.149 59.3428 130.967 60.7215 133.021 61.7775C135.133 62.7748 137.303 63.2735 139.533 63.2735ZM168.677 67.6735L182.317 48.9295C179.208 48.4601 176.685 47.1108 174.749 44.8815C172.872 42.5935 171.933 39.4841 171.933 35.5535C171.933 32.9135 172.549 30.5668 173.781 28.5135C175.013 26.4601 176.744 24.8175 178.973 23.5855C181.261 22.3535 183.931 21.7375 186.981 21.7375H204.493V67.6735H198.509V49.8975H188.301L175.365 67.6735H168.677ZM186.893 45.3215H198.509V26.4895H187.949C184.899 26.4895 182.464 27.3695 180.645 29.1295C178.827 30.8308 177.917 33.0015 177.917 35.6415C177.917 38.3401 178.651 40.6281 180.117 42.5055C181.643 44.3828 183.901 45.3215 186.893 45.3215ZM214.4 67.6735L231.56 44.0895L216.072 21.8255H222.848L236.664 41.6255H242.648V21.8255H248.808V41.6255H254.968L268.52 21.8255H275.384L259.808 44.0895L277.144 67.6735H270.192L254.968 46.9055H248.808V67.6735H242.648V46.9055H236.664L221.352 67.6735H214.4ZM87.5812 131.553C84.2958 131.553 81.2452 130.937 78.4292 129.705C75.6132 128.415 73.1785 126.684 71.1252 124.513C69.0718 122.284 67.4585 119.732 66.2852 116.857C65.1705 113.983 64.6132 110.903 64.6132 107.617C64.6132 103.335 65.5812 99.4041 67.5172 95.8255C69.5118 92.2468 72.2398 89.4015 75.7012 87.2895C79.1625 85.1188 83.0932 84.0335 87.4932 84.0335C92.0105 84.0335 95.9412 85.1188 99.2852 87.2895C102.688 89.4601 105.357 92.3348 107.293 95.9135C109.229 99.4335 110.197 103.305 110.197 107.529C110.197 107.999 110.197 108.468 110.197 108.937C110.197 109.348 110.168 109.671 110.109 109.905H70.8612C71.1545 113.191 72.0638 116.124 73.5892 118.705C75.1732 121.228 77.1972 123.252 79.6612 124.777C82.1838 126.244 84.9118 126.977 87.8452 126.977C90.8372 126.977 93.6532 126.215 96.2932 124.689C98.9918 123.164 100.869 121.169 101.925 118.705L107.117 120.113C106.178 122.284 104.741 124.249 102.805 126.009C100.869 127.769 98.5812 129.148 95.9412 130.145C93.3598 131.084 90.5732 131.553 87.5812 131.553ZM70.6852 105.593H104.565C104.33 102.249 103.421 99.3161 101.837 96.7935C100.312 94.2708 98.2878 92.3055 95.7652 90.8975C93.3012 89.4308 90.5732 88.6975 87.5812 88.6975C84.5892 88.6975 81.8612 89.4308 79.3972 90.8975C76.9332 92.3055 74.9092 94.3001 73.3252 96.8815C71.7998 99.4041 70.9198 102.308 70.6852 105.593ZM119.342 130.673V84.8255H125.326V104.537H151.55V84.8255H157.534V130.673H151.55V109.905H125.326V130.673H119.342ZM170.646 130.673V84.9135H176.63V122.577L204.526 84.8255H209.894V130.673H203.91V93.6255L176.454 130.673H170.646ZM242.784 131.553C239.499 131.553 236.448 130.937 233.632 129.705C230.816 128.415 228.382 126.684 226.328 124.513C224.275 122.284 222.662 119.732 221.488 116.857C220.374 113.983 219.816 110.903 219.816 107.617C219.816 103.335 220.784 99.4041 222.72 95.8255C224.715 92.2468 227.443 89.4015 230.904 87.2895C234.366 85.1188 238.296 84.0335 242.696 84.0335C247.214 84.0335 251.144 85.1188 254.488 87.2895C257.891 89.4601 260.56 92.3348 262.496 95.9135C264.432 99.4335 265.4 103.305 265.4 107.529C265.4 107.999 265.4 108.468 265.4 108.937C265.4 109.348 265.371 109.671 265.312 109.905H226.064C226.358 113.191 227.267 116.124 228.792 118.705C230.376 121.228 232.4 123.252 234.864 124.777C237.387 126.244 240.115 126.977 243.048 126.977C246.04 126.977 248.856 126.215 251.496 124.689C254.195 123.164 256.072 121.169 257.128 118.705L262.32 120.113C261.382 122.284 259.944 124.249 258.008 126.009C256.072 127.769 253.784 129.148 251.144 130.145C248.563 131.084 245.776 131.553 242.784 131.553ZM225.888 105.593H259.768C259.534 102.249 258.624 99.3161 257.04 96.7935C255.515 94.2708 253.491 92.3055 250.968 90.8975C248.504 89.4308 245.776 88.6975 242.784 88.6975C239.792 88.6975 237.064 89.4308 234.6 90.8975C232.136 92.3055 230.112 94.3001 228.528 96.8815C227.003 99.4041 226.123 102.308 225.888 105.593Z" fill="#B68F6E"/>
<path d="M58.1031 46.7194C58.1031 61.3448 46.3147 73.1778 31.8015 73.1778C17.2884 73.1778 5.5 61.3448 5.5 46.7194C5.5 32.0941 17.2884 20.2611 31.8015 20.2611C46.3147 20.2611 58.1031 32.0941 58.1031 46.7194Z" stroke="#B68F6E" stroke-width="5"/>
<path d="M3 104.794C2.99997 123.594 31.9535 141.985 52.6932 121.55C71.9955 99.685 52.6932 70.4632 29.9 72.7111" stroke="#B68F6E" stroke-width="5"/>
</svg>
